<mxfile host="app.diagrams.net" agent="Mozilla/5.0 (Windows NT 10.0; Win64; x64) AppleWebKit/537.36 (KHTML, like Gecko) Chrome/127.0.0.0 Safari/537.36" version="27.0.5">
  <diagram name="第 1 页" id="AVnIRLD937j_lpRGK_t2">
    <mxGraphModel dx="1489" dy="890" grid="1" gridSize="10" guides="1" tooltips="1" connect="1" arrows="1" fold="1" page="1" pageScale="1" pageWidth="1654" pageHeight="2336" math="0" shadow="0">
      <root>
        <mxCell id="0" />
        <mxCell id="1" parent="0" />
        <mxCell id="zE85wSG4c06ZFnSU2GEe-15" style="rounded=0;orthogonalLoop=1;jettySize=auto;html=1;exitX=1;exitY=0.5;exitDx=0;exitDy=0;entryX=0;entryY=0.5;entryDx=0;entryDy=0;" edge="1" parent="1" source="zE85wSG4c06ZFnSU2GEe-1" target="zE85wSG4c06ZFnSU2GEe-2">
          <mxGeometry relative="1" as="geometry" />
        </mxCell>
        <mxCell id="zE85wSG4c06ZFnSU2GEe-1" value="Conv" style="rounded=1;whiteSpace=wrap;html=1;fillColor=#dae8fc;strokeColor=#6c8ebf;textShadow=0;" vertex="1" parent="1">
          <mxGeometry x="80" y="180" width="80" height="20" as="geometry" />
        </mxCell>
        <mxCell id="zE85wSG4c06ZFnSU2GEe-21" value="" style="edgeStyle=orthogonalEdgeStyle;rounded=0;orthogonalLoop=1;jettySize=auto;html=1;" edge="1" parent="1" source="zE85wSG4c06ZFnSU2GEe-2" target="zE85wSG4c06ZFnSU2GEe-4">
          <mxGeometry relative="1" as="geometry" />
        </mxCell>
        <mxCell id="zE85wSG4c06ZFnSU2GEe-2" value="Split" style="rounded=1;whiteSpace=wrap;html=1;fillColor=#1ba1e2;strokeColor=#006EAF;textShadow=0;fontColor=#ffffff;" vertex="1" parent="1">
          <mxGeometry x="200" y="180" width="80" height="20" as="geometry" />
        </mxCell>
        <mxCell id="zE85wSG4c06ZFnSU2GEe-25" value="" style="edgeStyle=orthogonalEdgeStyle;rounded=0;orthogonalLoop=1;jettySize=auto;html=1;" edge="1" parent="1" source="zE85wSG4c06ZFnSU2GEe-3" target="zE85wSG4c06ZFnSU2GEe-7">
          <mxGeometry relative="1" as="geometry" />
        </mxCell>
        <mxCell id="zE85wSG4c06ZFnSU2GEe-3" value="Concat" style="rounded=1;whiteSpace=wrap;html=1;fillColor=#f8cecc;strokeColor=#b85450;" vertex="1" parent="1">
          <mxGeometry x="560" y="180" width="80" height="20" as="geometry" />
        </mxCell>
        <mxCell id="zE85wSG4c06ZFnSU2GEe-27" value="" style="edgeStyle=orthogonalEdgeStyle;rounded=0;orthogonalLoop=1;jettySize=auto;html=1;" edge="1" parent="1" source="zE85wSG4c06ZFnSU2GEe-4" target="zE85wSG4c06ZFnSU2GEe-6">
          <mxGeometry relative="1" as="geometry" />
        </mxCell>
        <mxCell id="zE85wSG4c06ZFnSU2GEe-4" value="Bottleneck" style="rounded=1;whiteSpace=wrap;html=1;textShadow=0;fillColor=#fff2cc;strokeColor=#d6b656;" vertex="1" parent="1">
          <mxGeometry x="320" y="180" width="80" height="20" as="geometry" />
        </mxCell>
        <mxCell id="zE85wSG4c06ZFnSU2GEe-22" value="" style="edgeStyle=orthogonalEdgeStyle;rounded=0;orthogonalLoop=1;jettySize=auto;html=1;" edge="1" parent="1" source="zE85wSG4c06ZFnSU2GEe-6" target="zE85wSG4c06ZFnSU2GEe-3">
          <mxGeometry relative="1" as="geometry" />
        </mxCell>
        <mxCell id="zE85wSG4c06ZFnSU2GEe-6" value="Bottleneck" style="rounded=1;whiteSpace=wrap;html=1;textShadow=0;fillColor=#fff2cc;strokeColor=#d6b656;" vertex="1" parent="1">
          <mxGeometry x="440" y="180" width="80" height="20" as="geometry" />
        </mxCell>
        <mxCell id="zE85wSG4c06ZFnSU2GEe-44" style="edgeStyle=orthogonalEdgeStyle;rounded=0;orthogonalLoop=1;jettySize=auto;html=1;exitX=1;exitY=0.5;exitDx=0;exitDy=0;" edge="1" parent="1" source="zE85wSG4c06ZFnSU2GEe-7">
          <mxGeometry relative="1" as="geometry">
            <mxPoint x="790" y="190.1111111111111" as="targetPoint" />
          </mxGeometry>
        </mxCell>
        <mxCell id="zE85wSG4c06ZFnSU2GEe-7" value="Conv" style="rounded=1;whiteSpace=wrap;html=1;fillColor=#dae8fc;strokeColor=#6c8ebf;textShadow=0;" vertex="1" parent="1">
          <mxGeometry x="680" y="180" width="80" height="20" as="geometry" />
        </mxCell>
        <mxCell id="zE85wSG4c06ZFnSU2GEe-17" style="edgeStyle=orthogonalEdgeStyle;rounded=0;orthogonalLoop=1;jettySize=auto;html=1;exitX=1;exitY=0.5;exitDx=0;exitDy=0;entryX=0;entryY=0.5;entryDx=0;entryDy=0;" edge="1" parent="1" source="zE85wSG4c06ZFnSU2GEe-9" target="zE85wSG4c06ZFnSU2GEe-10">
          <mxGeometry relative="1" as="geometry" />
        </mxCell>
        <mxCell id="zE85wSG4c06ZFnSU2GEe-9" value="Conv" style="rounded=1;whiteSpace=wrap;html=1;fillColor=#dae8fc;strokeColor=#6c8ebf;textShadow=0;" vertex="1" parent="1">
          <mxGeometry x="80" y="330" width="80" height="20" as="geometry" />
        </mxCell>
        <mxCell id="zE85wSG4c06ZFnSU2GEe-19" style="edgeStyle=orthogonalEdgeStyle;rounded=0;orthogonalLoop=1;jettySize=auto;html=1;entryX=0;entryY=0.5;entryDx=0;entryDy=0;" edge="1" parent="1" source="zE85wSG4c06ZFnSU2GEe-10" target="zE85wSG4c06ZFnSU2GEe-11">
          <mxGeometry relative="1" as="geometry" />
        </mxCell>
        <mxCell id="zE85wSG4c06ZFnSU2GEe-10" value="Split" style="rounded=1;whiteSpace=wrap;html=1;fillColor=#1ba1e2;strokeColor=#006EAF;textShadow=0;fontColor=#ffffff;" vertex="1" parent="1">
          <mxGeometry x="200" y="330" width="80" height="20" as="geometry" />
        </mxCell>
        <mxCell id="zE85wSG4c06ZFnSU2GEe-28" style="edgeStyle=orthogonalEdgeStyle;rounded=0;orthogonalLoop=1;jettySize=auto;html=1;exitX=1;exitY=0.5;exitDx=0;exitDy=0;entryX=0;entryY=0.5;entryDx=0;entryDy=0;curved=0;" edge="1" parent="1" source="zE85wSG4c06ZFnSU2GEe-11" target="zE85wSG4c06ZFnSU2GEe-12">
          <mxGeometry relative="1" as="geometry" />
        </mxCell>
        <mxCell id="zE85wSG4c06ZFnSU2GEe-11" value="C3K N=2" style="rounded=1;whiteSpace=wrap;html=1;textShadow=0;fillColor=#d80073;strokeColor=#A50040;fontColor=#ffffff;" vertex="1" parent="1">
          <mxGeometry x="320" y="330" width="80" height="20" as="geometry" />
        </mxCell>
        <mxCell id="zE85wSG4c06ZFnSU2GEe-23" value="" style="edgeStyle=orthogonalEdgeStyle;rounded=0;orthogonalLoop=1;jettySize=auto;html=1;" edge="1" parent="1" source="zE85wSG4c06ZFnSU2GEe-12" target="zE85wSG4c06ZFnSU2GEe-13">
          <mxGeometry relative="1" as="geometry" />
        </mxCell>
        <mxCell id="zE85wSG4c06ZFnSU2GEe-12" value="C3K N=2" style="rounded=1;whiteSpace=wrap;html=1;textShadow=0;fillColor=#d80073;strokeColor=#A50040;fontColor=#ffffff;" vertex="1" parent="1">
          <mxGeometry x="440" y="330" width="80" height="20" as="geometry" />
        </mxCell>
        <mxCell id="zE85wSG4c06ZFnSU2GEe-24" value="" style="edgeStyle=orthogonalEdgeStyle;rounded=0;orthogonalLoop=1;jettySize=auto;html=1;" edge="1" parent="1" source="zE85wSG4c06ZFnSU2GEe-13" target="zE85wSG4c06ZFnSU2GEe-14">
          <mxGeometry relative="1" as="geometry" />
        </mxCell>
        <mxCell id="zE85wSG4c06ZFnSU2GEe-13" value="Concat" style="rounded=1;whiteSpace=wrap;html=1;fillColor=#f8cecc;strokeColor=#b85450;" vertex="1" parent="1">
          <mxGeometry x="560" y="330" width="80" height="20" as="geometry" />
        </mxCell>
        <mxCell id="zE85wSG4c06ZFnSU2GEe-43" style="edgeStyle=orthogonalEdgeStyle;rounded=0;orthogonalLoop=1;jettySize=auto;html=1;exitX=1;exitY=0.5;exitDx=0;exitDy=0;" edge="1" parent="1" source="zE85wSG4c06ZFnSU2GEe-14">
          <mxGeometry relative="1" as="geometry">
            <mxPoint x="790" y="340" as="targetPoint" />
          </mxGeometry>
        </mxCell>
        <mxCell id="zE85wSG4c06ZFnSU2GEe-14" value="Conv" style="rounded=1;whiteSpace=wrap;html=1;fillColor=#dae8fc;strokeColor=#6c8ebf;textShadow=0;" vertex="1" parent="1">
          <mxGeometry x="680" y="330" width="80" height="20" as="geometry" />
        </mxCell>
        <mxCell id="zE85wSG4c06ZFnSU2GEe-31" value="" style="endArrow=classic;html=1;rounded=0;entryX=0.5;entryY=0;entryDx=0;entryDy=0;" edge="1" parent="1" target="zE85wSG4c06ZFnSU2GEe-3">
          <mxGeometry width="50" height="50" relative="1" as="geometry">
            <mxPoint x="180" y="190" as="sourcePoint" />
            <mxPoint x="650" y="120" as="targetPoint" />
            <Array as="points">
              <mxPoint x="180" y="120" />
              <mxPoint x="600" y="120" />
            </Array>
          </mxGeometry>
        </mxCell>
        <mxCell id="zE85wSG4c06ZFnSU2GEe-32" value="" style="endArrow=classic;html=1;rounded=0;entryX=0.5;entryY=0;entryDx=0;entryDy=0;" edge="1" parent="1">
          <mxGeometry width="50" height="50" relative="1" as="geometry">
            <mxPoint x="180" y="340" as="sourcePoint" />
            <mxPoint x="600" y="330" as="targetPoint" />
            <Array as="points">
              <mxPoint x="180" y="270" />
              <mxPoint x="600" y="270" />
            </Array>
          </mxGeometry>
        </mxCell>
        <mxCell id="zE85wSG4c06ZFnSU2GEe-34" value="" style="endArrow=none;html=1;rounded=0;" edge="1" parent="1">
          <mxGeometry width="50" height="50" relative="1" as="geometry">
            <mxPoint x="300" y="190" as="sourcePoint" />
            <mxPoint x="600" y="140" as="targetPoint" />
            <Array as="points">
              <mxPoint x="300" y="140" />
            </Array>
          </mxGeometry>
        </mxCell>
        <mxCell id="zE85wSG4c06ZFnSU2GEe-35" value="" style="endArrow=none;html=1;rounded=0;" edge="1" parent="1">
          <mxGeometry width="50" height="50" relative="1" as="geometry">
            <mxPoint x="300" y="340" as="sourcePoint" />
            <mxPoint x="600" y="290" as="targetPoint" />
            <Array as="points">
              <mxPoint x="300" y="290" />
            </Array>
          </mxGeometry>
        </mxCell>
        <mxCell id="zE85wSG4c06ZFnSU2GEe-36" value="" style="endArrow=none;html=1;rounded=0;" edge="1" parent="1">
          <mxGeometry width="50" height="50" relative="1" as="geometry">
            <mxPoint x="420" y="190" as="sourcePoint" />
            <mxPoint x="600" y="160" as="targetPoint" />
            <Array as="points">
              <mxPoint x="420" y="160" />
            </Array>
          </mxGeometry>
        </mxCell>
        <mxCell id="zE85wSG4c06ZFnSU2GEe-37" value="" style="endArrow=none;html=1;rounded=0;" edge="1" parent="1">
          <mxGeometry width="50" height="50" relative="1" as="geometry">
            <mxPoint x="420" y="340" as="sourcePoint" />
            <mxPoint x="600" y="310" as="targetPoint" />
            <Array as="points">
              <mxPoint x="420" y="310" />
            </Array>
          </mxGeometry>
        </mxCell>
        <mxCell id="zE85wSG4c06ZFnSU2GEe-40" value="" style="endArrow=classic;html=1;rounded=0;" edge="1" parent="1">
          <mxGeometry width="50" height="50" relative="1" as="geometry">
            <mxPoint x="50" y="189" as="sourcePoint" />
            <mxPoint x="80" y="189.47000000000003" as="targetPoint" />
          </mxGeometry>
        </mxCell>
        <mxCell id="zE85wSG4c06ZFnSU2GEe-41" value="" style="endArrow=classic;html=1;rounded=0;" edge="1" parent="1">
          <mxGeometry width="50" height="50" relative="1" as="geometry">
            <mxPoint x="50" y="340" as="sourcePoint" />
            <mxPoint x="80" y="339.74" as="targetPoint" />
          </mxGeometry>
        </mxCell>
        <mxCell id="zE85wSG4c06ZFnSU2GEe-52" style="edgeStyle=orthogonalEdgeStyle;rounded=0;orthogonalLoop=1;jettySize=auto;html=1;exitX=0.5;exitY=1;exitDx=0;exitDy=0;entryX=0.5;entryY=0;entryDx=0;entryDy=0;" edge="1" parent="1" source="zE85wSG4c06ZFnSU2GEe-45" target="zE85wSG4c06ZFnSU2GEe-46">
          <mxGeometry relative="1" as="geometry" />
        </mxCell>
        <mxCell id="zE85wSG4c06ZFnSU2GEe-45" value="Conv" style="rounded=1;whiteSpace=wrap;html=1;fillColor=#dae8fc;strokeColor=#6c8ebf;textShadow=0;" vertex="1" parent="1">
          <mxGeometry x="880" y="190" width="80" height="20" as="geometry" />
        </mxCell>
        <mxCell id="zE85wSG4c06ZFnSU2GEe-53" style="edgeStyle=orthogonalEdgeStyle;rounded=0;orthogonalLoop=1;jettySize=auto;html=1;exitX=0.5;exitY=1;exitDx=0;exitDy=0;entryX=0.5;entryY=0;entryDx=0;entryDy=0;" edge="1" parent="1" source="zE85wSG4c06ZFnSU2GEe-46" target="zE85wSG4c06ZFnSU2GEe-47">
          <mxGeometry relative="1" as="geometry" />
        </mxCell>
        <mxCell id="zE85wSG4c06ZFnSU2GEe-46" value="Conv" style="rounded=1;whiteSpace=wrap;html=1;fillColor=#dae8fc;strokeColor=#6c8ebf;textShadow=0;" vertex="1" parent="1">
          <mxGeometry x="880" y="240" width="80" height="20" as="geometry" />
        </mxCell>
        <mxCell id="zE85wSG4c06ZFnSU2GEe-54" style="edgeStyle=orthogonalEdgeStyle;rounded=0;orthogonalLoop=1;jettySize=auto;html=1;exitX=0.5;exitY=1;exitDx=0;exitDy=0;" edge="1" parent="1" source="zE85wSG4c06ZFnSU2GEe-47">
          <mxGeometry relative="1" as="geometry">
            <mxPoint x="920.3076923076922" y="340" as="targetPoint" />
          </mxGeometry>
        </mxCell>
        <mxCell id="zE85wSG4c06ZFnSU2GEe-47" value="" style="ellipse;whiteSpace=wrap;html=1;aspect=fixed;" vertex="1" parent="1">
          <mxGeometry x="910" y="290" width="20" height="20" as="geometry" />
        </mxCell>
        <mxCell id="zE85wSG4c06ZFnSU2GEe-48" value="" style="endArrow=none;html=1;rounded=0;" edge="1" parent="1">
          <mxGeometry width="50" height="50" relative="1" as="geometry">
            <mxPoint x="915" y="299.9" as="sourcePoint" />
            <mxPoint x="925" y="299.9" as="targetPoint" />
          </mxGeometry>
        </mxCell>
        <mxCell id="zE85wSG4c06ZFnSU2GEe-49" value="" style="endArrow=none;html=1;rounded=0;" edge="1" parent="1">
          <mxGeometry width="50" height="50" relative="1" as="geometry">
            <mxPoint x="919.9" y="305" as="sourcePoint" />
            <mxPoint x="919.9" y="295" as="targetPoint" />
          </mxGeometry>
        </mxCell>
        <mxCell id="zE85wSG4c06ZFnSU2GEe-55" value="" style="endArrow=classic;html=1;rounded=0;entryX=0.5;entryY=0;entryDx=0;entryDy=0;" edge="1" parent="1" target="zE85wSG4c06ZFnSU2GEe-45">
          <mxGeometry width="50" height="50" relative="1" as="geometry">
            <mxPoint x="920" y="160" as="sourcePoint" />
            <mxPoint x="970" y="110" as="targetPoint" />
          </mxGeometry>
        </mxCell>
        <mxCell id="zE85wSG4c06ZFnSU2GEe-57" value="" style="endArrow=classic;html=1;rounded=0;dashed=1;" edge="1" parent="1">
          <mxGeometry width="50" height="50" relative="1" as="geometry">
            <mxPoint x="920" y="179.15" as="sourcePoint" />
            <mxPoint x="920" y="320" as="targetPoint" />
            <Array as="points">
              <mxPoint x="1010" y="179" />
              <mxPoint x="1010" y="320" />
            </Array>
          </mxGeometry>
        </mxCell>
      </root>
    </mxGraphModel>
  </diagram>
</mxfile>
